# xmcd
#
# Track frame offsets: 
#        150
#        29351
#        71398
#        133049
#        186079
#        255948
#
# Disc length: 4497 seconds
#
# Revision: 0
# Processed by: cddbd v1.5.1PL2 Copyright (c) Steve Scherf et al.
# Submitted via: ExactAudioCopy v0.95b4
#
DISCID=49118f06
DTITLE=Debashish Bhattacharya - Calcutta Slide-Guitar
DYEAR=2005
DGENRE=World
TTITLE0=Aandandam
TTITLE1=Prema Chakor
TTITLE2=Nata Raaj
TTITLE3=Usha
TTITLE4=Prabha
TTITLE5=Maha Shakti
EXTD=
EXTT0=
EXTT1=
EXTT2=
EXTT3=
EXTT4=
EXTT5=
PLAYORDER=
